<?xml version="1.0" encoding="utf-8"?>
<!-- Generator: Adobe Illustrator 19.1.0, SVG Export Plug-In . SVG Version: 6.00 Build 0)  -->
<svg version="1.1" id="Layer_1" xmlns="http://www.w3.org/2000/svg" xmlns:xlink="http://www.w3.org/1999/xlink" x="0px" y="0px"
	 viewBox="0 0 4000 4000" style="enable-background:new 0 0 4000 4000;" xml:space="preserve">
<style type="text/css">
	.st0{fill:#FFFFFF;}
</style>
<g>
	<g>
		<path class="st0" d="M12.5,4012.5c0-1333.3,0-2666.7,0-4000c1333.3,0,2666.7,0,4000,0c0,1333.3,0,2666.7,0,4000
			C2679.2,4012.5,1345.8,4012.5,12.5,4012.5z M1049.1,1215.3c-4.1,4.3-8.3,8.6-12.4,13c286.9,522.7,573.9,1045.4,863.1,1572.3
			c10.4-12.1,13.7-17.3,18.3-20.7c4.4-3.3,10.2-4.9,12.1-5.7c-26.5,109.5,67,169.8,94.7,256.1c5.7,0.2,11.4,0.5,17.1,0.7
			c329.3-600.7,658.6-1201.4,987.9-1802.1c-4.9-3.8-9.9-7.7-14.8-11.5c-325.5,193.9-650.9,387.9-981.2,584.7
			C1704.3,1605.7,1376.7,1410.5,1049.1,1215.3z M932.4,2453.2c177.8-111.5,345.2-216.4,518.1-324.8
			c-170.6-305.7-335.4-601-500.3-896.4c-5.9,2-11.9,4-17.8,6C932.4,1638.2,932.4,2038.4,932.4,2453.2z M3129.8,1241.4
			c-5.8-1.3-11.6-2.7-17.4-4c-165,294.6-330.1,589.2-498.1,889.2c170.9,108.9,335.5,213.8,512.8,326.9c0-281.2,0.4-546.8-1-812.4
			c-0.1-15.8-13.9-31.5-18.1-40.5C3151.1,1479.2,3114.8,1359.1,3129.8,1241.4z"/>
		<path d="M1049.1,1215.3c327.6,195.2,655.2,390.4,984.7,586.7c330.2-196.8,655.7-390.7,981.2-584.7c4.9,3.8,9.9,7.7,14.8,11.5
			c-329.3,600.7-658.6,1201.4-987.9,1802.1c-5.7-0.2-11.4-0.5-17.1-0.7c-27.7-86.3-121.2-146.6-94.7-256.1
			c-1.9,0.8-7.7,2.4-12.1,5.7c-4.6,3.5-7.8,8.7-18.3,20.7c-289.2-526.9-576.2-1049.6-863.1-1572.3
			C1040.8,1224,1045,1219.6,1049.1,1215.3z"/>
		<path d="M932.4,2453.2c0-414.8,0-815,0-1215.2c5.9-2,11.9-4,17.8-6c164.8,295.3,329.7,590.7,500.3,896.4
			C1277.6,2236.8,1110.3,2341.7,932.4,2453.2z"/>
		<path d="M3129.8,1241.4c-15,117.7,21.3,237.8-21.8,359.2c4.3,9,18.1,24.7,18.1,40.5c1.3,265.6,1,531.2,1,812.4
			c-177.3-113-341.9-218-512.8-326.9c168-300,333.1-594.6,498.1-889.2C3118.2,1238.7,3124,1240.1,3129.8,1241.4z"/>
	</g>
</g>
</svg>
